<?xml version="1.0" encoding="UTF-8" standalone="no"?>
<!-- Created with Inkscape (http://www.inkscape.org/) -->
<svg
   xmlns:svg="http://www.w3.org/2000/svg"
   xmlns="http://www.w3.org/2000/svg"
   version="1.0"
   width="224"
   height="54"
   id="svg2">
  <defs
     id="defs4" />
  <g
     transform="translate(-138.5625,-502.59732)"
     id="layer1">
    <g
       transform="translate(0,0.375)"
       id="g2521">
      <path
         d="M 139.40625,535.13026 C 158.0051,526.55808 200.79064,520.56439 250.5625,520.56439 C 300.33436,520.56439 343.1199,526.55808 361.71875,535.13026 C 335.04639,529.62019 295.14267,526.12723 250.5625,526.12723 C 205.98233,526.12723 166.07861,529.62019 139.40625,535.13026 z"
         id="path2421"
         style="opacity:1;fill:#d7e3f4;fill-opacity:1;fill-rule:nonzero;stroke:none;stroke-opacity:1" />
      <path
         d="M 167.33593,532.55044 L 167.33593,521.81607 C 166.82029,520.92546 166.09373,520.23796 165.15624,519.75357 C 164.21873,519.25359 163.18748,519.00359 162.0625,519.00357 C 161.06248,519.00359 160.14842,519.19109 159.32031,519.56607 C 158.49217,519.92546 157.77342,520.47234 157.16406,521.20669 C 156.5703,521.94109 156.10155,522.85515 155.75781,523.94888 C 155.42968,525.04264 155.26561,526.32389 155.26562,527.79263 C 155.26561,529.12077 155.45311,530.32389 155.82812,531.40201 C 156.21874,532.48014 156.71093,533.40201 157.30468,534.16763 C 157.89842,534.91763 158.54686,535.50357 159.25,535.92544 C 159.96873,536.3317 160.64842,536.53482 161.28906,536.53482 C 161.8203,536.53482 162.34373,536.43326 162.85937,536.23013 C 163.37498,536.01138 163.88279,535.73013 164.38281,535.38638 C 164.89842,535.02701 165.39842,534.62857 165.88281,534.19107 C 166.36717,533.73795 166.85154,533.27701 167.33593,532.80826 L 167.33593,532.55044 M 174.50781,536.95669 C 173.78903,537.44107 173.14841,537.85513 172.58593,538.19888 C 172.03904,538.52701 171.55466,538.79263 171.13281,538.99576 C 170.72654,539.21451 170.37497,539.37076 170.07812,539.46451 C 169.78123,539.57388 169.52341,539.62857 169.30468,539.62857 C 168.78904,539.62857 168.36716,539.27701 168.03906,538.57388 C 167.71091,537.87076 167.49216,536.66763 167.38281,534.96451 C 166.78904,535.68326 166.19529,536.3317 165.60156,536.90982 C 165.02342,537.48794 164.42186,537.98013 163.79687,538.38638 C 163.18748,538.77701 162.53904,539.08169 161.85156,539.30044 C 161.16405,539.51919 160.42186,539.62857 159.625,539.62857 C 158.74999,539.62857 157.85155,539.37857 156.92968,538.87857 C 156.0078,538.36294 155.15624,537.62857 154.375,536.67544 C 153.60937,535.72232 152.97655,534.55826 152.47656,533.18326 C 151.99218,531.80826 151.74999,530.25358 151.75,528.51919 C 151.74999,527.62858 151.86718,526.70671 152.10156,525.75357 C 152.35156,524.80046 152.70312,523.87858 153.15624,522.98794 C 153.60937,522.09734 154.16405,521.25359 154.82031,520.45669 C 155.47655,519.65984 156.21093,518.96453 157.02343,518.37076 C 157.83592,517.7614 158.72655,517.28484 159.69531,516.94107 C 160.66405,516.59734 161.6953,516.42547 162.78906,516.42544 C 163.52342,516.42547 164.24998,516.51922 164.96874,516.70669 C 165.7031,516.87859 166.49217,517.27703 167.33593,517.90201 L 167.33593,509.06607 C 167.33592,508.20672 167.31248,507.52704 167.26562,507.02701 C 167.21873,506.51141 167.08592,506.12079 166.86718,505.85513 C 166.64842,505.57391 166.31248,505.38641 165.85937,505.29263 C 165.40623,505.18329 164.76561,505.09735 163.9375,505.03482 L 163.9375,504.12076 C 165.21873,503.94892 166.36717,503.72235 167.38281,503.44107 C 168.39841,503.14423 169.31248,502.86298 170.125,502.59732 L 170.85156,503.30044 L 170.85156,532.97232 C 170.85154,533.5192 170.85935,533.98795 170.875,534.37857 C 170.90622,534.7692 170.94529,535.09732 170.99218,535.36294 C 171.03904,535.62857 171.09372,535.84732 171.15624,536.01919 C 171.21872,536.19107 171.29685,536.3317 171.39062,536.44107 C 171.53122,536.61295 171.79685,536.66763 172.1875,536.60513 C 172.59372,536.52701 173.2656,536.30826 174.20312,535.94888 L 174.50781,536.95669 L 174.50781,536.95669 M 194.5,534.47232 C 193.48435,535.67545 192.58591,536.62076 191.80468,537.30826 C 191.03904,537.98013 190.3281,538.49576 189.67187,538.85513 C 189.01561,539.19888 188.37498,539.40982 187.75,539.48794 C 187.12498,539.58169 186.4453,539.62857 185.71093,539.62857 C 184.5703,539.62857 183.45311,539.37857 182.35937,538.87857 C 181.28124,538.36294 180.3203,537.62857 179.47656,536.67544 C 178.6328,535.72232 177.95312,534.55826 177.4375,533.18326 C 176.93749,531.80826 176.68749,530.25358 176.6875,528.51919 C 176.68749,526.83171 176.99218,525.25358 177.60156,523.78482 C 178.22655,522.31608 179.0703,521.04265 180.13281,519.96451 C 181.21093,518.87078 182.47655,518.0114 183.92968,517.38638 C 185.3828,516.74578 186.95311,516.42547 188.64062,516.42544 C 189.15623,516.42547 189.67967,516.47234 190.21093,516.56607 C 190.75779,516.64422 191.27342,516.76922 191.75781,516.94107 C 192.25779,517.09734 192.71091,517.29265 193.11718,517.52701 C 193.53904,517.74578 193.88279,517.99578 194.14843,518.27701 C 194.17966,518.46453 194.15623,518.73015 194.07812,519.07388 C 193.99998,519.41765 193.8906,519.78484 193.75,520.17544 C 193.60935,520.55046 193.4531,520.91765 193.28124,521.27701 C 193.10935,521.62077 192.9531,521.90202 192.8125,522.12076 L 191.94531,521.88638 C 191.82029,521.60515 191.61717,521.30046 191.33593,520.97232 C 191.05467,520.64421 190.68748,520.33171 190.23437,520.03482 C 189.79686,519.73796 189.26561,519.49578 188.64062,519.30826 C 188.03123,519.10515 187.32811,519.00359 186.53124,519.00357 C 185.70311,519.00359 184.90623,519.19109 184.14062,519.56607 C 183.39061,519.92546 182.71874,520.47234 182.125,521.20669 C 181.54686,521.94109 181.07811,522.85515 180.71874,523.94888 C 180.37499,525.04264 180.20311,526.32389 180.20312,527.79263 C 180.20311,529.12077 180.39843,530.32389 180.78906,531.40201 C 181.1953,532.48014 181.72655,533.40201 182.38281,534.16763 C 183.05467,534.91763 183.8203,535.50357 184.67968,535.92544 C 185.55467,536.3317 186.46092,536.53482 187.39843,536.53482 C 187.83592,536.53482 188.24217,536.5192 188.61718,536.48794 C 188.99217,536.44107 189.39842,536.32388 189.83593,536.13638 C 190.28904,535.94888 190.80467,535.65201 191.38281,535.24576 C 191.97654,534.83951 192.71091,534.26139 193.58593,533.51138 L 194.5,534.47232 L 194.5,534.47232 M 214.49218,528.26138 C 214.49216,527.02702 214.28904,525.85514 213.88281,524.74576 C 213.47654,523.62077 212.94529,522.6364 212.28906,521.79263 C 211.63279,520.93327 210.89842,520.25359 210.08593,519.75357 C 209.27342,519.25359 208.46873,519.00359 207.67187,519.00357 C 206.48436,519.00359 205.48436,519.23015 204.67187,519.68326 C 203.85936,520.1364 203.1953,520.7614 202.67968,521.55826 C 202.17968,522.33952 201.8203,523.26921 201.60156,524.34732 C 201.3828,525.42546 201.27343,526.58952 201.27343,527.83951 C 201.27343,529.07389 201.49218,530.25358 201.92968,531.37857 C 202.36718,532.48795 202.92186,533.46451 203.59374,534.30826 C 204.26561,535.15201 204.99999,535.82388 205.79687,536.32388 C 206.60936,536.80826 207.37498,537.05045 208.09374,537.05044 C 209.20311,537.05045 210.15623,536.84732 210.95312,536.44107 C 211.7656,536.0192 212.42967,535.42545 212.94531,534.65982 C 213.47654,533.8942 213.86716,532.97232 214.11718,531.89419 C 214.36716,530.81608 214.49216,529.60514 214.49218,528.26138 M 218.07812,527.55826 C 218.0781,528.58952 217.94529,529.61295 217.67968,530.62857 C 217.41404,531.62858 217.04685,532.57389 216.57812,533.46451 C 216.10935,534.35514 215.54685,535.18326 214.89062,535.94888 C 214.23435,536.69888 213.50779,537.34732 212.71093,537.89419 C 211.92967,538.44107 211.09373,538.86294 210.20312,539.15982 C 209.31248,539.47232 208.39061,539.62857 207.4375,539.62857 C 205.95311,539.62857 204.60936,539.34732 203.40624,538.78482 C 202.21874,538.22232 201.1953,537.44888 200.33593,536.46451 C 199.49218,535.48013 198.83593,534.30826 198.36718,532.94888 C 197.91406,531.58951 197.68749,530.11295 197.6875,528.51919 C 197.68749,527.48795 197.81249,526.47233 198.0625,525.47232 C 198.32812,524.47233 198.68749,523.52702 199.14062,522.63638 C 199.60937,521.73015 200.16405,520.90202 200.80468,520.15201 C 201.46093,519.3864 202.17968,518.73015 202.96093,518.18326 C 203.7578,517.6364 204.60936,517.20671 205.51562,516.89419 C 206.42186,516.58172 207.36717,516.42547 208.35156,516.42544 C 209.82029,516.42547 211.14842,516.70672 212.33593,517.26919 C 213.53904,517.83171 214.56248,518.61296 215.40624,519.61294 C 216.2656,520.59734 216.92185,521.76921 217.375,523.12857 C 217.84372,524.48796 218.0781,525.96452 218.07812,527.55826 M 221.40624,538.92544 L 221.40624,537.91763 C 222.07812,537.80826 222.64062,537.69888 223.09374,537.58951 C 223.54687,537.46451 223.90624,537.34732 224.17187,537.23794 C 224.43749,537.11295 224.62499,536.98795 224.73437,536.86294 C 224.85937,536.73795 224.92187,536.61295 224.92187,536.48794 L 224.92187,508.55044 C 224.92187,507.84735 224.87499,507.30047 224.78124,506.90982 C 224.68749,506.51923 224.51562,506.23016 224.26562,506.04263 C 224.01562,505.83954 223.67968,505.70673 223.25781,505.64419 C 222.83593,505.5661 222.29687,505.48798 221.64062,505.40982 L 221.64062,504.47232 C 222.76562,504.2536 223.79687,504.01142 224.73437,503.74576 C 225.67186,503.48017 226.62499,503.09735 227.59374,502.59732 L 228.4375,503.39419 L 228.4375,536.48794 C 228.43749,536.72232 228.70311,536.96451 229.23437,537.21451 C 229.76561,537.46451 230.67186,537.69888 231.95312,537.91763 L 231.95312,538.92544 L 221.40624,538.92544 M 244.65624,518.86294 C 243.85936,518.86296 243.12498,519.01921 242.45312,519.33169 C 241.78124,519.64421 241.17967,520.08171 240.64843,520.64419 C 240.1328,521.20671 239.6953,521.8864 239.33593,522.68326 C 238.99218,523.48015 238.74218,524.36296 238.58593,525.33169 L 248.59374,525.33169 C 248.9531,525.33171 249.18748,525.27702 249.29687,525.16763 C 249.42185,525.04264 249.48435,524.81608 249.48437,524.48794 C 249.48435,524.20671 249.46092,523.87077 249.41406,523.48013 C 249.36717,523.08952 249.27342,522.69108 249.13281,522.28482 C 249.00779,521.86296 248.8281,521.4489 248.59374,521.04263 C 248.37498,520.6364 248.08592,520.27702 247.72656,519.96451 C 247.36717,519.6364 246.92967,519.37078 246.41406,519.16763 C 245.91404,518.96453 245.32811,518.86296 244.65624,518.86294 M 253.32812,525.87076 C 253.04685,526.18327 252.67185,526.47233 252.20312,526.73794 C 251.73435,527.00358 251.24998,527.23795 250.75,527.44107 L 238.42187,527.44107 L 238.42187,527.51138 C 238.42186,528.68327 238.57811,529.81608 238.89062,530.90982 C 239.21874,531.98795 239.67968,532.94889 240.27343,533.79263 C 240.86717,534.62076 241.59374,535.28482 242.45312,535.78482 C 243.31248,536.28482 244.28123,536.53482 245.35937,536.53482 C 245.84373,536.53482 246.31248,536.51138 246.76562,536.46451 C 247.23436,536.40201 247.73436,536.2692 248.26562,536.06607 C 248.79685,535.84732 249.38279,535.52701 250.02343,535.10513 C 250.67966,534.68326 251.44529,534.11295 252.32031,533.39419 C 252.52341,533.50357 252.69529,533.65982 252.83593,533.86294 C 252.99216,534.06607 253.10935,534.23014 253.1875,534.35513 C 252.1406,535.49576 251.21873,536.41763 250.42187,537.12076 C 249.6406,537.80826 248.89842,538.33951 248.19531,538.71451 C 247.50779,539.08951 246.82029,539.33169 246.13281,539.44107 C 245.46092,539.56607 244.72655,539.62857 243.92968,539.62857 C 242.72655,539.62857 241.57811,539.37076 240.48437,538.85513 C 239.40624,538.33951 238.45311,537.61294 237.625,536.67544 C 236.79687,535.72232 236.1328,534.5817 235.63281,533.25357 C 235.14843,531.90983 234.90624,530.40983 234.90624,528.75357 C 234.90624,527.7067 235.02343,526.67546 235.25781,525.65982 C 235.49218,524.64421 235.82812,523.68327 236.26562,522.77701 C 236.71874,521.87077 237.26562,521.03484 237.90624,520.26919 C 238.54686,519.50359 239.27343,518.83953 240.08593,518.27701 C 240.42968,518.04265 240.81249,517.81609 241.23437,517.59732 C 241.67186,517.36296 242.12499,517.15984 242.59374,516.98794 C 243.06248,516.81609 243.52342,516.68328 243.97656,516.58951 C 244.4453,516.48015 244.89061,516.42547 245.3125,516.42544 C 246.34373,516.42547 247.24998,516.56609 248.03124,516.84732 C 248.8281,517.12859 249.52342,517.5114 250.11718,517.99576 C 250.71091,518.46453 251.21091,519.01921 251.61718,519.65982 C 252.02341,520.28484 252.35154,520.9489 252.60156,521.65201 C 252.86716,522.35515 253.05466,523.0739 253.16406,523.80826 C 253.27341,524.52702 253.3281,525.21452 253.32812,525.87076 M 271.65624,532.29263 C 271.65623,533.40201 271.49998,534.35514 271.1875,535.15201 C 270.87498,535.93326 270.46873,536.59732 269.96874,537.14419 C 269.46873,537.69107 268.91404,538.12857 268.30468,538.45669 C 267.6953,538.78482 267.09373,539.03482 266.5,539.20669 C 265.90623,539.37857 265.34373,539.48794 264.8125,539.53482 C 264.29686,539.59732 263.89061,539.62857 263.59374,539.62857 C 262.84374,539.62857 261.93749,539.48794 260.875,539.20669 C 259.82812,538.92544 258.78124,538.49576 257.73437,537.91763 C 257.62499,537.87076 257.54687,537.62076 257.5,537.16763 C 257.46874,536.69888 257.46093,536.16763 257.47656,535.57388 C 257.50781,534.96451 257.55468,534.35514 257.61718,533.74576 C 257.69531,533.13639 257.78905,532.65201 257.89843,532.29263 L 258.90624,532.55044 C 258.93749,533.2067 259.10937,533.82389 259.42187,534.40201 C 259.73437,534.98013 260.14843,535.48795 260.66406,535.92544 C 261.1953,536.36295 261.80468,536.7067 262.49218,536.95669 C 263.1953,537.20669 263.95311,537.33169 264.76562,537.33169 C 265.32811,537.33169 265.84373,537.24576 266.3125,537.07388 C 266.78123,536.88638 267.18748,536.62857 267.53124,536.30044 C 267.87498,535.97232 268.14061,535.5817 268.32812,535.12857 C 268.51561,534.65982 268.60936,534.15201 268.60937,533.60513 C 268.60936,532.98014 268.43748,532.42545 268.09374,531.94107 C 267.76561,531.4567 267.32811,531.0192 266.78124,530.62857 C 266.23436,530.22233 265.60936,529.84733 264.90624,529.50357 C 264.21874,529.1442 263.51561,528.77702 262.79687,528.40201 C 262.14061,528.07389 261.5078,527.72233 260.89843,527.34732 C 260.28905,526.97233 259.74218,526.55046 259.25781,526.08169 C 258.78905,525.61296 258.40624,525.08952 258.10937,524.51138 C 257.82812,523.93327 257.68749,523.26921 257.6875,522.51919 C 257.68749,521.55046 257.8828,520.69109 258.27343,519.94107 C 258.66405,519.17546 259.17968,518.53484 259.82031,518.01919 C 260.47655,517.50359 261.21874,517.11297 262.04687,516.84732 C 262.89061,516.56609 263.7578,516.42547 264.64843,516.42544 C 265.1328,516.42547 265.66405,516.47234 266.24218,516.56607 C 266.83592,516.64422 267.41405,516.7614 267.97656,516.91763 C 268.55467,517.0739 269.09373,517.2614 269.59374,517.48013 C 270.09373,517.6989 270.49998,517.9489 270.8125,518.23013 C 270.90623,518.3239 270.91404,518.53484 270.83593,518.86294 C 270.77342,519.19109 270.66404,519.55046 270.50781,519.94107 C 270.36717,520.33171 270.21092,520.6989 270.03906,521.04263 C 269.86717,521.3864 269.73436,521.62077 269.64062,521.74576 L 268.72656,521.55826 C 267.97654,520.43327 267.1953,519.65202 266.38281,519.21451 C 265.58592,518.7614 264.80467,518.53484 264.03906,518.53482 C 263.52342,518.53484 263.06249,518.62078 262.65624,518.79263 C 262.24999,518.96453 261.89843,519.19109 261.60156,519.47232 C 261.3203,519.73796 261.10155,520.03484 260.94531,520.36294 C 260.80468,520.69109 260.73436,521.01921 260.73437,521.34732 C 260.73436,521.84734 260.8828,522.30046 261.17968,522.70669 C 261.47655,523.09733 261.86718,523.47233 262.35156,523.83169 C 262.83592,524.17546 263.3828,524.5114 263.99218,524.83951 C 264.61717,525.15202 265.2578,525.48014 265.91406,525.82388 C 266.58592,526.16764 267.26561,526.53483 267.95312,526.92544 C 268.64061,527.31608 269.25779,527.7692 269.80468,528.28482 C 270.35154,528.78483 270.79685,529.36295 271.14062,530.01919 C 271.48435,530.65983 271.65623,531.41764 271.65624,532.29263 M 282.46093,536.04263 C 282.46092,536.58951 282.37499,537.09732 282.20312,537.56607 C 282.04686,538.01919 281.8203,538.41763 281.52343,538.76138 C 281.24218,539.10513 280.89843,539.37076 280.49218,539.55826 C 280.10155,539.76138 279.67968,539.86294 279.22656,539.86294 C 278.3828,539.86294 277.78124,539.63638 277.42187,539.18326 C 277.06249,538.73013 276.8828,538.08169 276.88281,537.23794 C 276.8828,536.7067 276.96874,536.21451 277.14062,535.76138 C 277.31249,535.29263 277.54687,534.88638 277.84374,534.54263 C 278.14062,534.18326 278.48437,533.90201 278.875,533.69888 C 279.28124,533.49576 279.70311,533.3942 280.14062,533.39419 C 280.92186,533.3942 281.49999,533.62857 281.875,534.09732 C 282.26561,534.55045 282.46092,535.19888 282.46093,536.04263 M 300.48437,538.92544 L 300.48437,537.91763 C 301.60935,537.62076 302.43748,537.36294 302.96874,537.14419 C 303.49998,536.92545 303.7656,536.7067 303.76562,536.48794 L 303.76562,524.08951 C 303.7656,523.1364 303.71091,522.36296 303.60156,521.76919 C 303.49216,521.17546 303.32029,520.70671 303.08593,520.36294 C 302.85154,520.01921 302.53904,519.78484 302.14843,519.65982 C 301.77342,519.53484 301.31248,519.47234 300.76562,519.47232 C 300.28123,519.47234 299.74217,519.58953 299.14843,519.82388 C 298.55467,520.05827 297.91404,520.43327 297.22656,520.94888 C 296.55467,521.46452 295.84373,522.14421 295.09374,522.98794 C 294.35936,523.81608 293.61717,524.83952 292.86718,526.05826 L 292.86718,536.48794 C 292.86717,536.72232 293.15624,536.96451 293.73437,537.21451 C 294.32811,537.46451 295.1328,537.69888 296.14843,537.91763 L 296.14843,538.92544 L 286.07031,538.92544 L 286.07031,537.91763 C 287.10156,537.65201 287.90624,537.41763 288.48437,537.21451 C 289.06249,536.99576 289.35155,536.75357 289.35156,536.48794 L 289.35156,522.26138 C 289.35155,521.65202 289.32812,521.16765 289.28124,520.80826 C 289.23437,520.4489 289.10155,520.16765 288.88281,519.96451 C 288.67968,519.7614 288.35937,519.61296 287.92187,519.51919 C 287.48437,519.42546 286.86718,519.33171 286.07031,519.23794 L 286.07031,518.30044 C 287.13281,518.12859 288.11718,517.8864 289.02343,517.57388 C 289.92968,517.24578 290.8203,516.86297 291.69531,516.42544 L 292.51562,517.24576 L 292.77343,523.08169 C 293.46092,522.03484 294.21874,521.10515 295.04687,520.29263 C 295.87498,519.46453 296.71092,518.76921 297.55468,518.20669 C 298.39842,517.62859 299.21092,517.19109 299.99218,516.89419 C 300.78904,516.58172 301.49217,516.42547 302.10156,516.42544 C 302.77341,516.42547 303.42185,516.52703 304.04687,516.73013 C 304.67185,516.93328 305.21872,517.24578 305.6875,517.66763 C 306.17185,518.08953 306.55466,518.62859 306.83593,519.28482 C 307.13279,519.92546 307.28122,520.68327 307.28124,521.55826 L 307.28124,536.48794 C 307.28122,536.7067 307.5156,536.92545 307.98437,537.14419 C 308.46872,537.34732 309.3281,537.60513 310.5625,537.91763 L 310.5625,538.92544 L 300.48437,538.92544 M 322.9375,518.86294 C 322.14061,518.86296 321.40623,519.01921 320.73437,519.33169 C 320.06249,519.64421 319.46092,520.08171 318.92968,520.64419 C 318.41405,521.20671 317.97655,521.8864 317.61718,522.68326 C 317.27343,523.48015 317.02343,524.36296 316.86718,525.33169 L 326.875,525.33169 C 327.23435,525.33171 327.46873,525.27702 327.57812,525.16763 C 327.7031,525.04264 327.7656,524.81608 327.76562,524.48794 C 327.7656,524.20671 327.74217,523.87077 327.69531,523.48013 C 327.64842,523.08952 327.55467,522.69108 327.41406,522.28482 C 327.28904,521.86296 327.10935,521.4489 326.875,521.04263 C 326.65623,520.6364 326.36717,520.27702 326.00781,519.96451 C 325.64842,519.6364 325.21092,519.37078 324.69531,519.16763 C 324.19529,518.96453 323.60936,518.86296 322.9375,518.86294 M 331.60937,525.87076 C 331.3281,526.18327 330.9531,526.47233 330.48437,526.73794 C 330.0156,527.00358 329.53123,527.23795 329.03124,527.44107 L 316.70312,527.44107 L 316.70312,527.51138 C 316.70311,528.68327 316.85936,529.81608 317.17187,530.90982 C 317.49999,531.98795 317.96093,532.94889 318.55468,533.79263 C 319.14842,534.62076 319.87499,535.28482 320.73437,535.78482 C 321.59373,536.28482 322.56248,536.53482 323.64062,536.53482 C 324.12498,536.53482 324.59373,536.51138 325.04687,536.46451 C 325.51561,536.40201 326.01561,536.2692 326.54687,536.06607 C 327.0781,535.84732 327.66404,535.52701 328.30468,535.10513 C 328.96091,534.68326 329.72654,534.11295 330.60156,533.39419 C 330.80466,533.50357 330.97654,533.65982 331.11718,533.86294 C 331.27341,534.06607 331.3906,534.23014 331.46874,534.35513 C 330.42185,535.49576 329.49998,536.41763 328.70312,537.12076 C 327.92185,537.80826 327.17967,538.33951 326.47656,538.71451 C 325.78904,539.08951 325.10154,539.33169 324.41406,539.44107 C 323.74217,539.56607 323.0078,539.62857 322.21093,539.62857 C 321.0078,539.62857 319.85936,539.37076 318.76562,538.85513 C 317.68749,538.33951 316.73436,537.61294 315.90624,536.67544 C 315.07812,535.72232 314.41405,534.5817 313.91406,533.25357 C 313.42968,531.90983 313.18749,530.40983 313.1875,528.75357 C 313.18749,527.7067 313.30468,526.67546 313.53906,525.65982 C 313.77343,524.64421 314.10937,523.68327 314.54687,522.77701 C 314.99999,521.87077 315.54687,521.03484 316.1875,520.26919 C 316.82811,519.50359 317.55468,518.83953 318.36718,518.27701 C 318.71093,518.04265 319.09374,517.81609 319.51562,517.59732 C 319.95311,517.36296 320.40624,517.15984 320.875,516.98794 C 321.34373,516.81609 321.80467,516.68328 322.25781,516.58951 C 322.72655,516.48015 323.17186,516.42547 323.59374,516.42544 C 324.62498,516.42547 325.53123,516.56609 326.3125,516.84732 C 327.10935,517.12859 327.80467,517.5114 328.39843,517.99576 C 328.99216,518.46453 329.49216,519.01921 329.89843,519.65982 C 330.30466,520.28484 330.63279,520.9489 330.88281,521.65201 C 331.14841,522.35515 331.33591,523.0739 331.44531,523.80826 C 331.55466,524.52702 331.60935,525.21452 331.60937,525.87076 M 349.375,536.18326 C 348.60935,536.74576 347.85154,537.24576 347.10156,537.68326 C 346.35154,538.10513 345.6328,538.46451 344.94531,538.76138 C 344.27342,539.04263 343.64842,539.25357 343.07031,539.39419 C 342.49217,539.55044 341.99999,539.62857 341.59374,539.62857 C 341.04686,539.62857 340.52343,539.52701 340.02343,539.32388 C 339.53905,539.12076 339.10936,538.79263 338.73437,538.33951 C 338.35937,537.87076 338.06249,537.26138 337.84374,536.51138 C 337.62499,535.76138 337.51562,534.83951 337.51562,533.74576 L 337.51562,519.33169 L 334.49218,519.33169 L 334,518.67544 L 335.82812,517.12857 L 337.51562,517.12857 L 337.51562,511.36294 L 340.30468,508.92544 L 341.03124,509.51138 L 341.03124,517.12857 L 348.69531,517.12857 L 349.375,517.80826 C 349.23435,518.02703 349.05467,518.2614 348.83593,518.51138 C 348.63279,518.74578 348.42186,518.98015 348.20312,519.21451 C 347.98436,519.43328 347.76561,519.62859 347.54687,519.80044 C 347.34373,519.97234 347.16404,520.08952 347.00781,520.15201 C 346.63279,519.96452 346.06248,519.78484 345.29687,519.61294 C 344.53123,519.42546 343.51561,519.33171 342.25,519.33169 L 341.03124,519.33169 L 341.03124,531.73013 C 341.03124,532.66764 341.0703,533.44889 341.14843,534.07388 C 341.24217,534.68326 341.39061,535.17545 341.59374,535.55044 C 341.79686,535.90982 342.05467,536.16763 342.36718,536.32388 C 342.6953,536.46451 343.09374,536.53482 343.5625,536.53482 C 344.10936,536.53482 344.79686,536.43326 345.625,536.23013 C 346.45311,536.02701 347.47654,535.61295 348.69531,534.98794 L 349.375,536.18326 L 349.375,536.18326"
         id="flowRoot2383"
         style="font-size:48px;font-style:normal;font-variant:normal;font-weight:normal;font-stretch:normal;text-align:center;text-anchor:middle;fill:#000000;fill-opacity:1;stroke:none;stroke-width:1px;stroke-linecap:butt;stroke-linejoin:miter;stroke-opacity:1;font-family:Gentium;-inkscape-font-specification:Gentium" />
      <path
         d="M 139.40625,541.28145 C 158.0051,549.85363 200.79065,555.84732 250.5625,555.84732 C 300.33436,555.84732 343.11991,549.85363 361.71875,541.28145 C 335.04639,546.79152 295.14267,550.28448 250.5625,550.28448 C 205.98233,550.28448 166.07862,546.79152 139.40625,541.28145 z"
         id="path2416"
         style="opacity:1;fill:#3771c8;fill-opacity:1;fill-rule:nonzero;stroke:none;stroke-opacity:1" />
    </g>
  </g>
</svg>
